<svg id="Layer_1" data-name="Layer 1" xmlns="http://www.w3.org/2000/svg" width="430" height="210" viewBox="0 0 430 210"><defs><style>.cls-1{fill:#fff;}.cls-2{fill:gray;}.cls-3{fill:#ccc;}.cls-4{fill:#b3b3b3;}.cls-5{fill:#999;}.cls-6{fill:#3bb44b;}.cls-7{fill:#029545;}.cls-8{fill:#9abe42;}</style></defs><title>logo</title><path class="cls-1" d="M237.74,101.91c3,19.58,30.76,25.87,68.88,20.11s55.07-16.46,61.88-36.89c6.26-18.79-28.94-34.85-67.07-29.09S234.79,82.34,237.74,101.91Z"/><path class="cls-2" d="M281.54,126.06c-26.81,0-43.42-8.36-45.76-23.85-1.55-10.24,4.57-20.9,17.24-30,12.28-8.84,29.36-15.27,48.11-18.1a102.42,102.42,0,0,1,39.43,1.51c11.74,2.89,21,7.85,26.18,14,4.24,5,5.5,10.63,3.64,16.19a44,44,0,0,1-20.05,25c-10,6-23.81,10.25-43.41,13.21A171.66,171.66,0,0,1,281.54,126.06Zm35.79-69.24A103.68,103.68,0,0,0,301.72,58c-18.13,2.73-34.6,8.92-46.38,17.4-11.39,8.21-17,17.51-15.63,26.21s8,14.7,19.81,17.93c11.68,3.19,27.87,3.37,46.81.51,36.7-5.54,53.6-15.51,60.28-35.56,1.42-4.24.44-8.41-2.91-12.38C356.79,63.9,339.2,56.82,317.33,56.82Z"/><path class="cls-2" d="M364.77,140.62c-36.9-6.58-85.93-10.2-138-10.2s-101.15,3.62-138,10.2c-39.3,7-59.23,16.17-59.23,27.23s19.93,20.21,59.23,27.22c36.9,6.58,85.93,10.2,138.05,10.2s101.15-3.62,138-10.2c39.3-7,59.23-16.17,59.23-27.22S404.07,147.63,364.77,140.62Z"/><path class="cls-3" d="M332.85,143.33c-28.37-5.06-66.06-7.84-106.13-7.84s-77.76,2.78-106.13,7.84c-30.22,5.39-45.54,12.43-45.54,20.93s15.32,15.54,45.54,20.93C149,190.25,186.65,193,226.72,193s77.76-2.79,106.13-7.85c30.22-5.39,45.54-12.43,45.54-20.93S363.07,148.72,332.85,143.33Z"/><path class="cls-4" d="M340.39,30.92l-.59-.58c-.7-.7-.87-.87-12.34-1-6.44-.09-15.83-.15-27.9-.16-20.32,0-48.53.07-83.84.28-60.12.35-120.81.91-121.42.92l-2.34,0,.4,2.31c.49,2.77,12,68.17,27.59,89.93,10.09,14.13,23.84,26.81,31.13,33.11a19,19,0,0,0,12.43,4.62H269.16c5.59,0,13.3-3.43,16.83-7.5a355.64,355.64,0,0,0,22.27-29.69C322,103.08,340.4,34.24,340.4,31.77Z"/><path class="cls-5" d="M163.55,160.05H269.2c5.59,0,13.3-3.44,16.83-7.5a354.39,354.39,0,0,0,22.27-29.7c13.77-20.07,32.14-88.9,32.14-91.38v-.84l-.59-.59c-.7-.69-.87-.86-12.34-1Z"/><path class="cls-1" d="M338.41,31.2c0,15.36-50.67,26.11-118.07,26.11s-126-10.75-126-26.11S149,7.36,216.37,7.36,338.41,15.84,338.41,31.2Z"/><path class="cls-2" d="M220.34,59.3c-33.49,0-65-2.61-88.67-7.34-26.1-5.21-39.34-12.19-39.34-20.76,0-19,64.08-25.83,124-25.83s124,6.79,124,25.83c0,8.65-11.88,15.64-35.32,20.76C283.41,56.69,253.31,59.3,220.34,59.3Zm-4-50c-78.82,0-120.06,11-120.06,21.86,0,11.65,49.84,24.12,124,24.12,72.66,0,116.09-12.26,116.09-24.12C336.43,20.34,295.19,9.34,216.37,9.34Z"/><path class="cls-6" d="M126.75,148.89s-1.71-21.95-13.41-32.76A84,84,0,0,0,80.53,97.52l-1.37,1.53L67.9,93.78l-3.74,2.9L55.63,94.2l-3.52,2.22-11.85-2.9-2.63,1.74L23.47,94.05l-2.58,4s-13.63-2-15.1-1,5,16,5,16l-1.85,4.53,6.9,12.15-1.26,4.11,9.52,10.42-.52,4.63L31.84,156l-.52,4.63,11.58,7.16-.9,2.42s26.53,12.13,38.53,12.08,30.74-1.56,39.69-12.14S126.75,148.89,126.75,148.89Z"/><path class="cls-7" d="M5.63,97c-1.47.9,5,16.06,5,16.06L8.74,117.6l6.89,12.16-1.26,4.11,9.53,10.42-.53,4.63L31.69,156l-.53,4.63,11.58,7.16-.9,2.42s23.69,13.62,42.87,14c12,.23,26.4-3.46,35.35-14s2.47-11.45,2.47-11.45-37.79-12.52-59.89-24.42-39.36-23.33-43.24-26.4S5.63,97,5.63,97Z"/><path class="cls-8" d="M136.56,162l-23-7.21s-22-40.16-23.68-40.84,21.52,37.63,21.47,39.26.21,1.27.21,1.27L84.77,143.39s-13-25.42-15-27.68S64,108.55,64,108.55l4.89,8S81,138.18,81.4,140.71s.32,1.89.32,1.89L57.61,130.39s-5.42-13-8.84-18S41.19,102,41.19,102s7.47,11.74,9,15,5.63,12.37,5.63,12.37-24.27-13.16-28-16.1S17.18,106,17.18,106s14.22,11.26,19.58,14.26S48,127.13,48,127.13s-8.06,2.31-15.37,1.26S22,126.92,22,126.92a62.59,62.59,0,0,0,13.48,3c6.58.52,14.74-1.16,14.74-1.16l24,13.21s-12.32,4-20.9,5.1a127,127,0,0,1-17.05.9s13.79,1,21.05-.26,19.69-4.58,19.69-4.58l25.52,11s-15.52,6.15-25.73,7.21-19.22,1.58-19.22,1.58,18.64.79,30.16-2.11,16.64-5.37,16.64-5.37l30.89,10.11a2.48,2.48,0,0,0,1.74-1.27Z"/><path class="cls-6" d="M127,153.4S138.45,140,138,127.27a67.25,67.25,0,0,0-8-29.1l-1.63.09-3.4-9.36-3.75-.47L117.7,82.2l-3.25-.74-5.06-8.35-2.48-.5-7.32-8.7-3.73.8s-6.61-8.81-8-9.14-6.29,11.88-6.29,11.88L78,69,75,79.76l-3,1.61-.51,11.29L68.57,95l.72,8.7L66.37,106l2.5,10.61-1.87.86s8.14,21.89,15,28.65,18.27,16.52,29.33,15.59S127,153.4,127,153.4Z"/><path class="cls-7" d="M87.8,55.49c-1.34-.32-6.28,11.89-6.28,11.89L77.91,68.9l-3,10.78-3,1.61-.51,11.29-2.92,2.33.71,8.7-2.91,2.32,2.5,10.61-1.88.86s5.7,21.11,16.35,32.18c6.66,6.92,16.9,13,28,12.06s7.88-5.08,7.88-5.08S104.77,128.08,99,108.83s-9.07-35.48-9.53-39.41S87.8,55.49,87.8,55.49Z"/><path class="cls-8" d="M125.12,166.39l-8.91-17.07s10.31-35.15,9.71-36.52-9.11,33.48-10.07,34.37-.59.84-.59.84l-8.91-21.48s7-21.75,7.18-24.16.8-7.3.8-7.3l-1.72,7.27s-5.46,19.1-6.65,20.76l-.89,1.25L98.34,103.8s4.32-10.46,5.18-15.19,1.61-10.19,1.61-10.19S102.71,89.29,101.7,92s-3.81,10.19-3.81,10.19S91.6,81,91.16,77.26,89.28,67.1,89.28,67.1s1.67,14.42,3,19.15S94.73,96.5,94.73,96.5a34.1,34.1,0,0,1-9.41-8c-3.55-4.74-5.19-6.86-5.19-6.86a50.2,50.2,0,0,0,6,9.3,50.43,50.43,0,0,0,9,7.69l6.08,21s-9.24-4.71-14.72-8.94a102.61,102.61,0,0,1-10.16-9.14s7.27,8.34,12.07,11.76,13.73,8.55,13.73,8.55l8.22,20.68S98,137.28,91.66,132.1s-11.76-10-11.76-10S90,133.11,98.16,138s12.45,6.37,12.45,6.37l11.77,23.21a2,2,0,0,0,1.7.27Z"/><path class="cls-6" d="M311.35,162.29s-3.22-12.85,1.39-21.25a50.36,50.36,0,0,1,15.16-16.88l1.07.61,5.42-5.16,2.69.94,4.39-3,2.43.59,6.21-3.92,1.83.49,7.85-3.39,2.23,1.79s7.41-3.72,8.42-3.49.24,10.1.24,10.1l1.92,2.24L371,130.17l1.51,2.1L369,140l1.19,2.55-3.4,5.61,1.19,2.54L362.78,157l1,1.21s-12.82,12-19.67,14.25-17.83,5-25,.66S311.35,162.29,311.35,162.29Z"/><path class="cls-7" d="M370.53,109.57c1,.23.25,10.1.25,10.1l1.91,2.23-1.61,8.25,1.5,2.1L369.14,140l1.18,2.54-3.39,5.61,1.18,2.54-5.24,6.3,1,1.21s-10.91,12.29-21.79,16.16c-6.8,2.43-15.72,3.07-22.84-1.25s-3.6-6.06-3.6-6.06,19.17-14.37,29.51-25.37,18-20.83,19.62-23.32S370.53,109.57,370.53,109.57Z"/><path class="cls-8" d="M308.26,171.65,320,163.16s4.85-27.1,5.71-27.83-5.09,25.58-4.75,26.5.12.77.12.77l13.19-11.47s2.56-17,3.27-18.66,1.91-5.17,1.91-5.17l-1.28,5.46s-2.73,14.68-2.49,16.2l.18,1.14,11.42-11.57s.6-8.48,1.61-12,2.33-7.39,2.33-7.39-2,8.12-2.26,10.31-.85,8.13-.85,8.13,11.33-12.14,12.9-14.54,4.67-6.2,4.67-6.2-6,9.14-8.45,11.87-5.07,6.08-5.07,6.08a25.59,25.59,0,0,0,9-2.22c4-2,5.79-2.87,5.79-2.87a37.45,37.45,0,0,1-7.13,4.26,37.9,37.9,0,0,1-8.62,2.15L340,148.26a87.56,87.56,0,0,0,12.89-1.08,75.53,75.53,0,0,0,9.9-2.74s-7.68,3.17-12.06,3.87-12.1,1.15-12.1,1.15l-12.47,11.15s10,.54,16.06-.81S353.52,157,353.52,157s-10.48,4-17.61,4.56a57.67,57.67,0,0,1-10.52.11L309.7,173.37a1.47,1.47,0,0,1-1.23-.38Z"/></svg>