<svg id="Layer_1" data-name="Layer 1" xmlns="http://www.w3.org/2000/svg" viewBox="0 0 1920 1080"><defs><style>.cls-1{fill:#bed2b7;}.cls-2{fill:#e5d2ca;}.cls-3{fill:#919681;}</style></defs><title>tea_logo</title><path class="cls-1" d="M657.41,485.31c1.06-1.85,4.78-3.93,9.76-4.28s9,1.14,10.27,2.86c-1.12,1.77-4.93,3.61-9.78,4S658.82,486.85,657.41,485.31Z"/><path class="cls-2" d="M708.16,488.08a32,32,0,0,0-7.28-3.38,35.49,35.49,0,0,0-7.9-1.4c-2.66-.19-5.32-.19-8-.15s-5.28.1-7.93.21l0,1.12q3.95-.15,7.9-.2c2.63,0,5.26,0,7.86.15a34,34,0,0,1,7.65,1.35,31.58,31.58,0,0,1,7,3.26Z"/><path class="cls-1" d="M677.82,471.14c-.44,2,1.14,5.58,4.74,8.6s7.66,4.31,9.9,4a5.75,5.75,0,0,0-.47-4,13.62,13.62,0,0,0-3.87-4.89,18,18,0,0,0-5.67-3.21A9.5,9.5,0,0,0,677.82,471.14Z"/><path class="cls-3" d="M678.71,496.59c-.53-2,.64-5.66,4-8.84s7.51-4.5,9.72-3.82a6.45,6.45,0,0,1-.88,3.9,17.61,17.61,0,0,1-3.52,4.7,16.3,16.3,0,0,1-5.1,3.32A8.36,8.36,0,0,1,678.71,496.59Z"/><path class="cls-1" d="M692.62,496.61c-.16-2,1-5.67,4.66-8.13A9.67,9.67,0,0,1,703,486.8a6.52,6.52,0,0,1,4.18,1.44h0a6.73,6.73,0,0,1-2.51,3.1,36.06,36.06,0,0,1-4.78,3,29.26,29.26,0,0,1-4.19,2.09A4.71,4.71,0,0,1,692.62,496.61Z"/><path class="cls-3" d="M694.93,471.24c-.82,2,.76,5.6,4,9.4s6.12,6.7,8.31,7.41h0a5.61,5.61,0,0,0,1.34-3.78,11,11,0,0,0-1.86-6.24,15.54,15.54,0,0,0-6.05-5.3A12.25,12.25,0,0,0,694.93,471.24Z"/><path class="cls-2" d="M727.6,511.63a23.28,23.28,0,0,0-2.73-7.58,33.36,33.36,0,0,0-4.83-6.41,54.66,54.66,0,0,0-5.93-5.36,57.54,57.54,0,0,0-6.55-4.56l-.57,1a55.11,55.11,0,0,1,6.42,4.48,52.56,52.56,0,0,1,5.81,5.24,33,33,0,0,1,4.67,6.19,22,22,0,0,1,2.6,7.22Z"/><path class="cls-1" d="M715,478c-1.6,1.38-1.85,5.39-.75,10.06s3.24,8.26,5.12,9.54c1.77-.93,3.56-4.59,2.55-9.6a17,17,0,0,0-2.79-6.41A11,11,0,0,0,715,478Z"/><path class="cls-3" d="M701.52,499.59c.76-1.86,3.44-4.57,8-5.11s8.57,1.26,9.72,3.26c-1.05,1.76-4.66,3.17-8.9,3.6a17.56,17.56,0,0,1-5.61-.32A6.37,6.37,0,0,1,701.52,499.59Z"/><path class="cls-1" d="M710.77,507.19a7.84,7.84,0,0,1,3.28-2.25,10.74,10.74,0,0,1,5.61-.6,9.51,9.51,0,0,1,5.26,2.65,5.77,5.77,0,0,1,1.86,4h0c-1.84.92-5.65,0-9.33-.72a21.92,21.92,0,0,1-4.41-1.23A4.38,4.38,0,0,1,710.77,507.19Z"/><path class="cls-3" d="M729.64,490.08c-2,.88-3.2,4.69-3.42,9.66a62.1,62.1,0,0,0,0,6.7,13.84,13.84,0,0,0,.78,4.47h0a5.23,5.23,0,0,0,3.7-1.57,10.55,10.55,0,0,0,3-6.05,16,16,0,0,0-.83-8.14A12.5,12.5,0,0,0,729.64,490.08Z"/><path class="cls-1" d="M935.22,404.51a8,8,0,0,1-2.64,2.15c-1.15.67-2.26,1.24-3.53,1.84l-.68.34c-.73.35-1.34.63-2.09,1a22.07,22.07,0,0,1-2.26.84,6.52,6.52,0,0,1-3.83.21,6.19,6.19,0,0,1,.76-3.8,9.52,9.52,0,0,1,1.61-2.29,10.3,10.3,0,0,1,2.91-2.13,10.08,10.08,0,0,1,1.16-.47,8.87,8.87,0,0,1,5.8.14A5.43,5.43,0,0,1,935.22,404.51Z"/><path class="cls-2" d="M897.11,422.76a22.37,22.37,0,0,0,13-3.41,69.29,69.29,0,0,0,10.62-8.27l-.75-.84a68.61,68.61,0,0,1-10.43,8.14,21.31,21.31,0,0,1-12.39,3.26Z"/><path class="cls-1" d="M928.1,420.84c-1-1.78-4.29-3.7-8.63-4s-7.84.59-9.19,2c.58,1.9,3.55,4.55,8.25,5a14.92,14.92,0,0,0,6.15-.73A7.19,7.19,0,0,0,928.1,420.84Z"/><path class="cls-3" d="M911.22,401.77c1.63,1.23,3.19,4.72,3.06,8.91a11.71,11.71,0,0,1-1.37,5.32,5.09,5.09,0,0,1-2.75,2.56c-1.38-1.46-2.17-5.2-2.12-9.08a13.22,13.22,0,0,1,1-4.94A5.71,5.71,0,0,1,911.22,401.77Z"/><path class="cls-1" d="M903.09,408.07a10.31,10.31,0,0,1,1.54,3.66,10.57,10.57,0,0,1-.17,5.33,8,8,0,0,1-3,4.26,4.37,4.37,0,0,1-3.61.81h0c-.36-2,1.24-5.52,2.24-8.83a23.47,23.47,0,0,1,1.42-3.78A2.48,2.48,0,0,1,903.09,408.07Z"/><path class="cls-3" d="M915.42,430.36c-.47-2.07-3.75-4.23-8-5.84a51.34,51.34,0,0,0-5.7-1.81,9.05,9.05,0,0,0-3.85-.36h0a5.89,5.89,0,0,0,.52,4,9.82,9.82,0,0,0,4.59,4.44,14,14,0,0,0,7.32,1.34A10.11,10.11,0,0,0,915.42,430.36Z"/><path d="M703.14,511.06c9.4-.47,10.05-2.07,10.05-9.22v-46h-5.82c-12.32,0-13.54,2.06-16.36,11.93h-1.5c.56-5.54.84-11.18,1-16.44H692a4.12,4.12,0,0,0,2.07,2,9.12,9.12,0,0,0,3,.28H735c2.44,0,3.1-.47,4.42-2.25l1.6.09a143.06,143.06,0,0,0,.84,16l-1.6.37c-2.25-10.62-5.82-11.93-13.81-11.93h-8.37v46c0,7.15.66,8.75,10.43,9.22v1.31H703.14Z"/><path d="M779.84,505.23c-5.55,6.39-11.94,8.18-14.1,8.18-11.09,0-18-8.84-18-18.8,0-13.82,11.28-22.37,18.89-22.37,8.08,0,13.91,6.58,13.91,13.25,0,1.88-.09,2.16-1.6,2.44s-13.53,1.32-26.5,1.69C752.39,503.91,761,509,767.43,509c3.2,0,6.58-.66,11.37-5.17Zm-26.79-18.61c2.16,0,15.42-.19,19.46-.29,2.35,0,2.35-.93,2.35-1.5,0-5.26-4-10-10.72-10C759.44,474.87,754.46,479,753.05,486.62Z"/><path d="M814.15,513.41a8.43,8.43,0,0,1-3-1.7c-1.13-1.22-1.5-2.35-2.07-4.41-3.66,2.82-7.89,6.11-11.37,6.11a10.58,10.58,0,0,1-10.9-10.72c0-4.23,2.91-7.24,9.4-9.21,4.79-1.41,10.71-3.67,12.87-5,0-4.61-.09-12.79-8.55-12.79-1.5.1-6.58.47-8.18,8a2.08,2.08,0,0,1-2.07,1.6,3.11,3.11,0,0,1-2.82-3.19c0-1.41,1.13-2.54,2.64-3.39,2.35-1.6,8.64-5.45,13.25-6.48,4.6,0,10.43,3,10.43,11.28v20.2c0,3.86,1.41,5.36,3.39,5.36a7.93,7.93,0,0,0,4.13-1.22l.85,1.6Zm-5.08-22.56c-2,1.12-7.89,3.38-10,4.23-4.23,1.59-6.77,3.38-6.77,6.86a7.28,7.28,0,0,0,7.33,7.42c3.2,0,7.43-2.35,9.4-4.79Z"/><path d="M927.25,411.07c15.28,0,22.11,7.23,22.11,16.88,0,19.56-28,49.05-69.81,49.05-2.28,0-4.56-.14-6.84-.27a.91.91,0,0,1-.94-.81c0-.94,2.55-.94,3.76-.94,40.87,0,64.05-26.53,64.05-44.08,0-8.71-5.63-15.14-17.69-15.14-41.94,0-50.92,84.95-83.62,101.44-1.07,0-1.34-.27-1.34-.67s.94-1.34.94-1.34C858.64,489.46,879.68,411.07,927.25,411.07Z"/><path d="M935.56,494.68a62.61,62.61,0,0,0-1.08,7.78c0,5.22,2.28,7.1,5.5,7.1,8,0,22.38-11.53,26-14.47a1.32,1.32,0,0,1,.67-.27.77.77,0,0,1,.8.8,1.44,1.44,0,0,1-.4.94c-7.64,6.7-22.92,17.15-31.9,17.15-4.28,0-7.23-2.41-7.23-8.84,0-1.88-.14-5.5-.14-5.5-6.83,7.51-20.9,15.15-31.89,15.15-6.3,0-9.11-2.28-9.11-5.36,0-7.91,17.69-21.71,41.14-21.71.67,0,1.2.13,1.47.13.81.13,1.07.4,1.07.67s-.67.94-1.34.94c-21.44.54-33,11.52-33,17.82,0,2.55,2,4.42,5.9,4.42,9.11,0,23-9.78,27.06-16.34.67-1.08,2.82-1.88,4.43-1.88C933.55,493.21,935.56,493.21,935.56,494.68Z"/><path d="M998.54,493.21c0,5.9-7,14.34-15.82,18.09,9.92-.54,24.13-6.83,34.85-16.21a1.32,1.32,0,0,1,.67-.27.77.77,0,0,1,.8.8,1.44,1.44,0,0,1-.4.94c-12.6,11.66-30,18.36-41.54,18.36-5.9,0-10.19-1.74-11.66-5.23a4.66,4.66,0,0,1-.4-1.87c0-2.55,3.35-4.43,5.22-4.43.67,0,.94.27.94,1.08,1.61,4.28,4.29,6.16,7.1,6.16,5.1,0,10.46-5.63,10.46-13.13,0-5.63-2.55-7.77-6.17-7.77s-9.24,2.54-16.35,7.63a4.4,4.4,0,0,1-2.14.94.62.62,0,0,1-.67-.53,1.62,1.62,0,0,1,.8-1.21S977.1,485,990.5,485C995.19,485,998.54,487.18,998.54,493.21Z"/><path d="M1050,493.21c0,5.9-7,14.34-15.81,18.09,9.92-.54,24.12-6.83,34.84-16.21.27-.14.4-.27.67-.27a.77.77,0,0,1,.8.8,1.44,1.44,0,0,1-.4.94c-12.59,11.66-30,18.36-41.54,18.36-5.89,0-10.18-1.74-11.66-5.23a4.66,4.66,0,0,1-.4-1.87c0-2.55,3.35-4.43,5.23-4.43.67,0,.94.27.94,1.08,1.6,4.28,4.28,6.16,7.1,6.16,5.09,0,10.45-5.63,10.45-13.13,0-5.63-2.55-7.77-6.17-7.77s-9.24,2.54-16.34,7.63a4.39,4.39,0,0,1-2.15.94.62.62,0,0,1-.67-.53,1.61,1.61,0,0,1,.81-1.21S1028.55,485,1042,485C1046.64,485,1050,487.18,1050,493.21Z"/><path d="M1086.3,510.63c7.91,0,27.21-12.86,30.29-15.81a.73.73,0,0,1,.67-.27.77.77,0,0,1,.8.8,1.44,1.44,0,0,1-.4.94c-3.35,3.22-27.2,18.63-37.79,18.63-3.08,0-5.09-1.34-5.09-4.69,0-6.3,4.42-11.66,4.42-15.68,0-1.21-.4-1.74-1.34-1.74-1.61,0-4.69,1.74-9.38,5a3.21,3.21,0,0,1-1.2.4c-.54,0-.81-.27-.81-.67a1.4,1.4,0,0,1,.67-.94c4.82-4.29,11.12-7.37,15.68-7.37,3.75,0,5.09,1.47,5.09,3.62,0,4.15-5,11-5,14.74C1083,509.69,1084.29,510.63,1086.3,510.63Zm5.63-33.23c0,2.54-2.68,6-5.49,6a3.41,3.41,0,0,1-3.49-3.62,5.38,5.38,0,0,1,5.5-5.23C1091,474.58,1091.93,475.79,1091.93,477.4Z"/><path d="M1109.75,505.94c0-7.91,11.66-18.49,31.9-18.49.67,0,1.2.13,1.47.13.8.13,1.07.4,1.07.67s-.67.94-1.34.94c-17.95.54-25.19,8.58-25.19,15.14,0,4.42,3.35,8.18,8.84,8.18,10.32,0,16.08-7.24,16.08-12.73a18.4,18.4,0,0,0-.67-5.36,5.19,5.19,0,0,1-.26-1.21c0-1.61,4.42-5.36,5.89-5.36.54,0,.81.13.81.54,0,7.5,4.69,11,10.31,11a18.13,18.13,0,0,0,11.39-4.55c.27-.14.41-.27.67-.27a.77.77,0,0,1,.81.8,1.49,1.49,0,0,1-.4.94c-4.29,3.89-9.38,6.3-14.74,6.3a16.85,16.85,0,0,1-6.3-1.21c-3.49,6.7-14.07,13.27-26.67,13.27C1114,514.65,1109.75,510.76,1109.75,505.94Z"/><path d="M1188.28,505.4a1,1,0,0,0,.54.27c.13,0,.4-.13.67-.53,1.6-2,11-9.65,18.35-9.65,11.13,0,4.16,14.07,9,14.07,8,0,22.38-11.53,26-14.47.27-.14.4-.27.67-.27a.77.77,0,0,1,.8.8,1.44,1.44,0,0,1-.4.94c-7.64,6.7-22.91,17.15-31.89,17.15-7.37,0-3.49-14.87-9-14.87-1.74,0-9.78,2.28-15.68,12.06-.67.94-3.75,2.14-5.89,2.14-1.21,0-2.15-.4-2.15-1.34a4.22,4.22,0,0,1,.4-1.47c1.88-4.42,4.56-10.19,4.56-13.94s-1.34-5-3.22-5c-3.21,0-7.9,3.49-11.12,6a4.4,4.4,0,0,1-2.14.94.62.62,0,0,1-.67-.53,1.62,1.62,0,0,1,.8-1.21c5.9-5.23,11.66-7.77,15.95-7.77s6.83,2.41,6.83,7.23A22.94,22.94,0,0,1,1188.28,505.4Z"/><path class="cls-1" d="M1116,443.05c1.08,2.84.94,7.23-.87,12.08a48.4,48.4,0,0,1-8.89,14.34,71.73,71.73,0,0,1-11.14,10.34c-3.48,2.59-6.8,4.72-9.79,5.54-2.08-2.12-3.52-6.48-2.8-12.07a29.11,29.11,0,0,1,2.63-8.75,37.4,37.4,0,0,1,5.6-8.5,39.67,39.67,0,0,1,13.94-10.35C1109,443.77,1113,442.84,1116,443.05Z"/></svg>
