<svg id="Layer_1" data-name="Layer 1" xmlns="http://www.w3.org/2000/svg" viewBox="0 0 1920 1080"><defs><style>.cls-1{fill:#bed2b7;}.cls-2{fill:#e5d2ca;}.cls-3{fill:#919681;}</style></defs><title>tea_logo1</title><path class="cls-1" d="M209.14,527.57c2.57-4.68,8.42-9.57,16.81-13.64a80.11,80.11,0,0,1,14.4-5.08c2.68-.68,5.52-1.17,8.45-1.61a88.05,88.05,0,0,1,9.13-.87c12.61-.47,24.08,1.52,32.88,5a48.36,48.36,0,0,1,11.11,5.93,23,23,0,0,1,6.37,6.92,25.34,25.34,0,0,1-7.15,5.77,60.51,60.51,0,0,1-11.06,5,108.51,108.51,0,0,1-30.71,5.51c-2.94.09-5.82.18-8.61.08s-5.51-.34-8.13-.6a85.49,85.49,0,0,1-14.49-2.7C219.4,535,212.67,531.36,209.14,527.57Z"/><path class="cls-2" d="M455,571.24c-24-9.68-46.42-23.44-71.06-33.11l-9.33-3.34c-1.56-.54-3.09-1.17-4.68-1.62l-4.75-1.39-4.76-1.38c-1.59-.44-3.16-1-4.78-1.31L346,526.88c-3.21-.82-6.48-1.26-9.72-1.86l-4.87-.85-2.44-.42-2.45-.31-9.81-1.21c-1.63-.23-3.28-.35-4.92-.48l-4.92-.38-.43,5.61,4.84.38c1.61.12,3.23.24,4.83.46l9.63,1.2,2.41.3,2.38.41,4.78.83c3.17.59,6.38,1,9.51,1.82l9.44,2.17c1.59.32,3.11.84,4.67,1.27l4.64,1.36,4.65,1.35c1.55.43,3,1.06,4.57,1.58l9.1,3.26c12,4.72,23.64,10.48,35.31,16.34,5.83,2.93,11.7,5.86,17.61,8.71,3,1.38,5.94,2.84,9,4.15l4.52,2,4.59,1.89Z"/><path class="cls-1" d="M318.3,461.19a19.09,19.09,0,0,0-.88,8.83,42.46,42.46,0,0,0,3,11.23A77.14,77.14,0,0,0,327,494.09q2.1,3.32,4.63,6.66c1.69,2.25,3.51,4.62,5.47,6.91a169.43,169.43,0,0,0,11.91,12.42c2,1.87,4,3.59,5.92,5.16,1,.8,2,1.52,2.92,2.27s1.9,1.51,2.84,2.21c1.88,1.39,3.73,2.63,5.53,3.71.91.54,1.8,1,2.68,1.5l1.31.66,1.27.68a27.76,27.76,0,0,0,9.34,3.11c3-4.11,4.59-11,3.56-19.64a55.59,55.59,0,0,0-3.72-14.05,69.9,69.9,0,0,0-8.81-15.1c-1-1.29-2-2.55-3-3.78s-2.11-2.31-3.21-3.42a89,89,0,0,0-6.87-6.2,75.71,75.71,0,0,0-14.64-9.41A59.74,59.74,0,0,0,330,462.51a54.21,54.21,0,0,0-6.29-1.16c-1-.12-1.94-.2-2.86-.24S319.12,461.13,318.3,461.19Z"/><path class="cls-3" d="M306.4,588c-.5-5,1-12.06,4.82-19.4a58.2,58.2,0,0,1,7.63-11.07,69.53,69.53,0,0,1,5.33-5.43,66.16,66.16,0,0,1,20.55-12.3,71.38,71.38,0,0,1,7.18-2.15c1.19-.28,2.37-.56,3.53-.75s2.3-.29,3.42-.38a58.1,58.1,0,0,1,6.53-.2c1.05,0,2.07.09,3.06.17.5,0,1,.09,1.47.16s.93.17,1.39.27a27.9,27.9,0,0,1,9.16,3.52c-.46,5-4.13,11.2-9.86,17.38a91,91,0,0,1-10,9.15,121.38,121.38,0,0,1-12.36,8.85c-1.1.69-2.19,1.34-3.26,2l-3.25,1.87c-2.14,1.2-4.23,2.26-6.25,3.18A88.74,88.74,0,0,1,324,587.14c-1.8.51-3.48.83-5.14,1.13a34.3,34.3,0,0,1-4.76.61,22.5,22.5,0,0,1-4.16-.14,14.65,14.65,0,0,1-1.84-.34A14.25,14.25,0,0,1,306.4,588Z"/><path class="cls-1" d="M362.55,601.16c1.09-5,4.42-11.21,10.16-17.2a56.72,56.72,0,0,1,10.59-8.35,64.3,64.3,0,0,1,14.47-6.37,81.07,81.07,0,0,1,31-3c9.2.94,16.69,3.22,21.28,6.58h0a20.29,20.29,0,0,1-3.25,8.15,38.62,38.62,0,0,1-7.73,8.56,52.48,52.48,0,0,1-5.52,4,67,67,0,0,1-6.56,3.67,72.86,72.86,0,0,1-7.55,3.15,84.07,84.07,0,0,1-8.33,2.53,102.71,102.71,0,0,1-30.86,2.88C371.87,605.23,365.83,603.58,362.55,601.16Z"/><path class="cls-3" d="M411,483.4c-3.31,4.06-4.59,11.14-3.75,19.85a78.38,78.38,0,0,0,2.58,14.18,114.12,114.12,0,0,0,5.4,15.79c4.62,10.85,10.37,20,16.64,26.7s13,10.88,18.6,11.87h0a20.77,20.77,0,0,0,3.58-8,49.34,49.34,0,0,0,1.24-11.35c0-2.12-.08-4.33-.27-6.61s-.48-4.63-.91-7.08-.94-4.92-1.59-7.44-1.5-5.16-2.45-7.77a72,72,0,0,0-16.87-26.61C426.15,489.92,417.93,485.06,411,483.4Z"/><path class="cls-2" d="M597.9,556l-.81.91-.79.82a20.29,20.29,0,0,1-1.62,1.59,35.05,35.05,0,0,1-3.55,2.87,50.4,50.4,0,0,1-8.07,4.62A120.29,120.29,0,0,1,565,573,272.21,272.21,0,0,1,527,581.05c-12.76,1.62-25.7,1.92-38.32-.09l-4.72-.79-4.69-1-2.34-.53-2.31-.65c-1.55-.44-3.1-.85-4.63-1.31-6.13-2-12.19-4.15-18.13-6.69l-2.19,5.19c6.08,2.59,12.33,4.85,18.66,6.87,1.59.48,3.21.91,4.81,1.37l2.4.67,2.45.56,4.88,1.1,5,.82a140.6,140.6,0,0,0,39.88.11,277.29,277.29,0,0,0,38.72-8.24,125.56,125.56,0,0,0,19-6.52,54.89,54.89,0,0,0,9-5.13,40.26,40.26,0,0,0,4.09-3.31,25.36,25.36,0,0,0,1.89-1.85l.92-1,.81-.91Z"/><path class="cls-1" d="M479.35,515.41a29.85,29.85,0,0,0-3.28,8.24,47.4,47.4,0,0,0-1.42,11.1,52.59,52.59,0,0,0,.32,6.41,53.54,53.54,0,0,0,6.57,20.8,57.66,57.66,0,0,0,4.41,6.51,53.12,53.12,0,0,0,5.21,5.49,43,43,0,0,0,11.95,7.61c8.31,3.56,16.47,3.88,21.78,2,.79-5-1.29-11.81-5.19-19.26s-9.59-15.45-15.08-23.39c-2.78-3.9-5.09-7.48-7.13-10.46-1.05-1.58-2-3-3-4.18a41.73,41.73,0,0,0-2.95-3.55,29.71,29.71,0,0,0-3-2.89l-.74-.59-.78-.6c-.52-.38-1-.73-1.55-1a17,17,0,0,0-1.52-.79,15.44,15.44,0,0,0-1.59-.7A10.87,10.87,0,0,0,479.35,515.41Z"/><path class="cls-3" d="M432.75,633.92a18,18,0,0,1,3.19-8.27,42.44,42.44,0,0,1,8-8.63,69.66,69.66,0,0,1,5.56-4.23c2-1.39,4.26-2.8,6.6-4.15a164.46,164.46,0,0,1,15.67-7.84c2.89-1.32,5.72-2.53,8.46-3.62s5.48-2.29,8.08-3.25c5.23-2,10.09-3.81,14.56-5.33,8.93-2.94,16.44-4.61,22.12-3.94,1.88,4.67,1.79,11.86-1.48,19.94s-9.75,17.26-21.52,24.69a68.43,68.43,0,0,1-19.44,8.27,105,105,0,0,1-10.33,2c-3.34.37-6.67.58-9.93.64a90.06,90.06,0,0,1-9.16-.45c-.73-.07-1.46-.15-2.16-.24l-2-.32c-1.34-.23-2.64-.49-3.9-.77s-2.48-.58-3.64-.91-2.18-.7-3.2-1.08A40.61,40.61,0,0,1,432.75,633.92Z"/><path class="cls-1" d="M540.9,646.21c-2.32-4.74-1.74-11.89,1.24-20.21s8.2-17.84,15.29-27.51a132.93,132.93,0,0,1,10.9-13.11A142.14,142.14,0,0,1,579.55,575c3.64-3.07,7-5.77,10-8.11a86.38,86.38,0,0,1,8.09-5.79h0a18.74,18.74,0,0,1,6.25,6.17,24.19,24.19,0,0,1,3.54,11.41A38.46,38.46,0,0,1,604.62,595,69.57,69.57,0,0,1,594,613c-1.18,1.49-2.28,2.84-3.5,4.21s-2.36,2.62-3.48,3.82c-2.34,2.45-4.56,4.63-6.64,6.62a73.65,73.65,0,0,1-13.17,10.1C558,643.31,548.21,646.18,540.9,646.21Z"/><path class="cls-3" d="M522,520.26c0,5.06,1.58,12,5.63,19.13a55,55,0,0,0,20.39,20.17A68.09,68.09,0,0,0,562.93,566a54.07,54.07,0,0,0,14.19,2.46,29.22,29.22,0,0,0,12.07-2.09,16.77,16.77,0,0,0,7.66-6h0c-2.4-4.48-8.6-8.23-14.85-13.15a113.54,113.54,0,0,1-9.27-8.16c-3-2.94-6-6-9.51-8.85-.82-.7-1.8-1.37-2.66-2s-1.83-1.24-2.85-1.79a34.51,34.51,0,0,0-6.3-2.86,96.42,96.42,0,0,0-12.63-3.36C531.22,518.67,525.58,518.69,522,520.26Z"/><path d="M191.87,555.56c27.5-1.38,29.43-6,29.43-27V393.84H204.25c-36,0-39.61,6.05-47.86,34.93H152c1.65-16.23,2.48-32.73,3-48.13h4.4c1.92,3.3,3.85,4.95,6.05,5.78s4.95.82,8.8.82H285.1c7.15,0,9.08-1.37,12.93-6.6l4.67.28c-.55,12.92,1.1,30.25,2.48,46.75l-4.68,1.1c-6.6-31.08-17.05-34.93-40.42-34.93H235.6V528.6c0,20.91,1.92,25.58,30.53,27v3.85H191.87Z"/><path d="M416.29,538.5c-16.23,18.71-34.93,23.93-41.26,23.93-32.45,0-52.53-25.85-52.53-55,0-40.43,33-65.46,55.28-65.46,23.66,0,40.71,19.25,40.71,38.78,0,5.5-.28,6.33-4.68,7.15s-39.6,3.85-77.56,5C336,534.65,361,549.51,380,549.51c9.35,0,19.26-1.93,33.28-15.13Zm-78.38-54.45c6.32,0,45.1-.55,56.93-.83,6.87,0,6.87-2.75,6.87-4.4,0-15.4-11.55-29.15-31.35-29.15C356.61,449.67,342,461.77,337.91,484.05Z"/><path d="M516.67,562.43a24.54,24.54,0,0,1-8.8-4.95c-3.3-3.57-4.4-6.87-6.05-12.93-10.73,8.26-23.1,17.88-33.28,17.88-19,0-31.9-14.3-31.9-31.35,0-12.38,8.52-21.18,27.5-27,14-4.13,31.35-10.73,37.68-14.58,0-13.48-.28-37.4-25-37.4-4.4.27-19.25,1.37-23.93,23.37a6.08,6.08,0,0,1-6.05,4.68c-3.85,0-8.25-3.85-8.25-9.35,0-4.13,3.3-7.43,7.7-9.9,6.88-4.68,25.3-15.95,38.78-19,13.48,0,30.53,8.8,30.53,33V534.1c0,11.28,4.12,15.68,9.9,15.68a23.3,23.3,0,0,0,12.1-3.57l2.48,4.67Zm-14.85-66c-5.78,3.3-23.1,9.9-29.16,12.37-12.37,4.68-19.8,9.9-19.8,20.08,0,14.3,11.55,21.73,21.45,21.73,9.36,0,21.73-6.88,27.51-14Z"/><path d="M847.57,263c44.7,0,64.69,21.17,64.69,49.4,0,57.24-81.94,143.49-204.26,143.49-6.66,0-13.33-.39-20-.78a2.63,2.63,0,0,1-2.75-2.35c0-2.75,7.45-2.75,11-2.75,119.58,0,187.4-77.63,187.4-129,0-25.48-16.46-44.3-51.75-44.3-122.71,0-149,248.57-244.64,296.79-3.14,0-3.92-.78-3.92-2,0-1.57,2.74-3.92,2.74-3.92C646.84,492.36,708.39,263,847.57,263Z"/><path d="M871.88,507.65s-3.14,16.08-3.14,22.74c0,15.29,6.66,20.78,16.07,20.78,23.53,0,65.48-33.71,76.06-42.34.79-.39,1.18-.78,2-.78a2.25,2.25,0,0,1,2.35,2.35,4.24,4.24,0,0,1-1.17,2.74c-22.35,19.61-67,50.19-93.31,50.19-12.55,0-21.17-7.06-21.17-25.88,0-5.49-.39-16.07-.39-16.07-20,22-61.17,44.3-93.31,44.3-18.43,0-26.66-6.67-26.66-15.68,0-23.13,51.75-63.52,120.36-63.52,2,0,3.53.4,4.31.4,2.35.39,3.14,1.17,3.14,2,0,1.17-2,2.74-3.92,2.74-62.73,1.57-96.45,33.72-96.45,52.14,0,7.45,5.88,12.94,17.25,12.94,26.66,0,67.43-28.62,79.2-47.83,2-3.14,8.23-5.49,12.93-5.49C866,503.34,871.88,503.34,871.88,507.65Z"/><path d="M1056.14,503.34c0,17.25-20.39,41.95-46.26,52.93,29-1.57,70.57-20,101.93-47.44.79-.39,1.18-.78,2-.78a2.26,2.26,0,0,1,2.35,2.35,4.2,4.2,0,0,1-1.18,2.74c-36.85,34.11-87.82,53.72-121.54,53.72-17.25,0-29.79-5.1-34.11-15.29a13.9,13.9,0,0,1-1.17-5.49c0-7.45,9.8-12.94,15.29-12.94,2,0,2.74.78,2.74,3.14,4.71,12.54,12.55,18,20.78,18,14.9,0,30.58-16.47,30.58-38.42,0-16.47-7.45-22.74-18-22.74-10.2,0-27,7.45-47.83,22.35-2.75,2-5.1,2.74-6.28,2.74a1.79,1.79,0,0,1-2-1.57c0-1.17.79-2.35,2.36-3.53,0,0,37.63-33.71,76.84-33.71C1046.34,479.43,1056.14,485.7,1056.14,503.34Z"/><path d="M1206.69,503.34c0,17.25-20.39,41.95-46.27,52.93,29-1.57,70.57-20,101.94-47.44.78-.39,1.18-.78,2-.78a2.25,2.25,0,0,1,2.35,2.35,4.24,4.24,0,0,1-1.17,2.74c-36.86,34.11-87.83,53.72-121.54,53.72-17.25,0-29.8-5.1-34.11-15.29a13.75,13.75,0,0,1-1.18-5.49c0-7.45,9.8-12.94,15.29-12.94,2,0,2.75.78,2.75,3.14,4.7,12.54,12.54,18,20.78,18,14.89,0,30.58-16.47,30.58-38.42,0-16.47-7.45-22.74-18-22.74-10.19,0-27,7.45-47.83,22.35-2.74,2-5.1,2.74-6.27,2.74a1.79,1.79,0,0,1-2-1.57c0-1.17.78-2.35,2.35-3.53,0,0,37.64-33.71,76.84-33.71C1196.88,479.43,1206.69,485.7,1206.69,503.34Z"/><path d="M1312.93,554.31c23.13,0,79.59-37.64,88.6-46.26a2.16,2.16,0,0,1,2-.79,2.27,2.27,0,0,1,2.36,2.36,4.25,4.25,0,0,1-1.18,2.74c-9.8,9.41-79.59,54.5-110.56,54.5-9,0-14.9-3.93-14.9-13.73,0-18.42,12.94-34.11,12.94-45.87,0-3.53-1.18-5.09-3.92-5.09-4.71,0-13.72,5.09-27.45,14.5a8.89,8.89,0,0,1-3.53,1.18c-1.56,0-2.35-.79-2.35-2a4.09,4.09,0,0,1,2-2.75c14.12-12.54,32.54-21.56,45.87-21.56,11,0,14.9,4.31,14.9,10.59,0,12.15-14.5,32.14-14.5,43.12C1303.13,551.57,1307.05,554.31,1312.93,554.31Zm16.46-97.23c0,7.45-7.84,17.64-16.07,17.64-6.67,0-10.19-5.1-10.19-10.58,0-7.06,5.49-14.9,16.07-15.29C1326.65,448.85,1329.39,452.37,1329.39,457.08Z"/><path d="M1381.54,540.59c0-23.13,34.1-54.11,93.31-54.11,2,0,3.52.4,4.31.4,2.35.39,3.13,1.17,3.13,2,0,1.17-2,2.74-3.92,2.74-52.53,1.57-73.7,25.09-73.7,44.3,0,12.94,9.8,23.92,25.87,23.92,30.19,0,47-21.17,47-37.25,0-5.88-.78-12.54-2-15.68a14.6,14.6,0,0,1-.78-3.53c0-4.7,12.93-15.68,17.25-15.68,1.56,0,2.35.39,2.35,1.57,0,21.95,13.72,32.15,30.19,32.15,11,0,23.13-4.71,33.32-13.33.79-.4,1.18-.79,2-.79a2.26,2.26,0,0,1,2.35,2.36,4.24,4.24,0,0,1-1.17,2.74c-12.55,11.37-27.45,18.43-43.13,18.43a49.77,49.77,0,0,1-18.43-3.53c-10.19,19.6-41.16,38.81-78,38.81C1394.08,566.07,1381.54,554.7,1381.54,540.59Z"/><path d="M1611.28,539a3,3,0,0,0,1.57.78c.39,0,1.18-.39,2-1.56,4.71-5.89,32.15-28.23,53.71-28.23,32.55,0,12.16,41.16,26.27,41.16,23.53,0,65.48-33.71,76.06-42.34.79-.39,1.18-.78,2-.78a2.25,2.25,0,0,1,2.35,2.35,4.24,4.24,0,0,1-1.17,2.74c-22.35,19.61-67,50.19-93.31,50.19-21.56,0-10.2-43.52-26.27-43.52-5.1,0-28.62,6.66-45.87,35.28-2,2.75-11,6.28-17.25,6.28-3.53,0-6.27-1.18-6.27-3.92a12,12,0,0,1,1.17-4.32c5.49-12.93,13.33-29.79,13.33-40.77,0-10.59-3.92-14.51-9.41-14.51-9.41,0-23.13,10.2-32.54,17.65-2.74,2-5.1,2.74-6.27,2.74a1.79,1.79,0,0,1-2-1.57c0-1.17.78-2.35,2.35-3.53,17.25-15.29,34.11-22.74,46.66-22.74,12.15,0,20,7.06,20,21.18C1618.34,518.63,1616.38,528,1611.28,539Z"/><path class="cls-1" d="M1402.64,390.28a32.26,32.26,0,0,1-1,13.81,60.22,60.22,0,0,1-7.46,16.14,98,98,0,0,1-13,16,142.09,142.09,0,0,1-16.3,14c-2.85,2.08-5.55,4-8.27,5.76s-5.33,3.37-7.84,4.88c-5.11,3-10,5.51-14.6,7.8s-9.21,4.33-13.54,6.18l-3.23,1.32c-1.06.42-2.12.82-3.19,1.18a45,45,0,0,1-6.08,1.77,21.77,21.77,0,0,1-3.68-5.29,29.72,29.72,0,0,1-1.37-3.4c-.21-.61-.4-1.25-.58-1.91s-.3-1.3-.43-2a44.3,44.3,0,0,1,1-19.46c3.66-14.49,14.41-30,29.25-40.83A93,93,0,0,1,1373,389.18a83.17,83.17,0,0,1,16.45-1A48.77,48.77,0,0,1,1402.64,390.28Z"/></svg>
